<?xml version="1.0" encoding="utf-8"?>
<!-- Generator: Adobe Illustrator 16.0.0, SVG Export Plug-In . SVG Version: 6.00 Build 0)  -->
<!DOCTYPE svg PUBLIC "-//W3C//DTD SVG 1.1//EN" "http://www.w3.org/Graphics/SVG/1.1/DTD/svg11.dtd">
<svg version="1.1" id="Layer_1" xmlns="http://www.w3.org/2000/svg" xmlns:xlink="http://www.w3.org/1999/xlink" x="0px" y="0px"
	 width="100px" height="100px" viewBox="0 0 100 100" enable-background="new 0 0 100 100" xml:space="preserve">
<rect x="148.5" y="-0.5" fill="#004F9F" width="100" height="101"/>
<rect x="296.5" y="-0.5" fill="#0062A2" width="101" height="101"/>
<path id="Behance_1_" fill="#FFFFFF" d="M222.788,36.674h-13.927v-3.458h13.927V36.674z M199.589,50.861
	c0.901,1.393,1.345,3.082,1.345,5.063c0,2.058-0.502,3.896-1.533,5.521c-0.652,1.076-1.471,1.986-2.448,2.716
	c-1.101,0.849-2.406,1.429-3.904,1.739c-1.506,0.312-3.128,0.47-4.881,0.47h-15.581V31.778h16.707
	c4.21,0.068,7.195,1.289,8.957,3.683c1.059,1.472,1.581,3.232,1.581,5.281c0,2.119-0.531,3.809-1.597,5.092
	c-0.594,0.723-1.473,1.379-2.633,1.972C197.357,48.448,198.693,49.463,199.589,50.861z M180.562,45.413h7.319
	c1.505,0,2.722-0.284,3.655-0.855c0.934-0.57,1.402-1.585,1.402-3.041c0-1.61-0.616-2.678-1.854-3.193
	c-1.068-0.354-2.434-0.536-4.083-0.536h-6.44V45.413z M193.65,55.436c0-1.799-0.737-3.039-2.203-3.705
	c-0.819-0.383-1.977-0.573-3.461-0.592h-7.424v9.223h7.312c1.496,0,2.66-0.197,3.498-0.606
	C192.887,59.001,193.65,57.566,193.65,55.436z M227.956,49.809c0.17,1.128,0.243,2.773,0.215,4.917h-18.039
	c0.103,2.496,0.957,4.234,2.593,5.229c0.98,0.626,2.172,0.932,3.567,0.932c1.469,0,2.668-0.373,3.597-1.138
	c0.508-0.403,0.948-0.979,1.33-1.696h6.61c-0.173,1.469-0.968,2.957-2.396,4.477c-2.219,2.408-5.324,3.613-9.322,3.613
	c-3.295,0-6.203-1.019-8.725-3.047c-2.517-2.037-3.781-5.341-3.781-9.928c0-4.294,1.136-7.588,3.408-9.877
	c2.282-2.291,5.231-3.436,8.861-3.436c2.156,0,4.098,0.385,5.828,1.16c1.727,0.777,3.154,1.993,4.281,3.67
	C226.999,46.156,227.654,47.861,227.956,49.809z M221.453,50.454c-0.127-1.725-0.7-3.026-1.732-3.918
	c-1.031-0.889-2.314-1.338-3.846-1.338c-1.662,0-2.945,0.478-3.859,1.418c-0.924,0.941-1.496,2.217-1.731,3.838H221.453z"/>
<path id="Facebook_1_" fill="#FFFFFF" d="M341.89,32.994c0,1.323,0,7.228,0,7.228h-5.297v8.837h5.297v26.266h10.876V49.059h7.299
	c0,0,0.686-4.235,1.016-8.872c-0.95,0-8.274,0-8.274,0s0-5.143,0-6.043c0-0.901,1.188-2.117,2.358-2.117c1.172,0,3.643,0,5.928,0
	c0-1.202,0-5.361,0-9.205c-3.053,0-6.526,0-8.057,0C341.62,22.823,341.89,31.673,341.89,32.994z"/>
<g>
	<g>
		<path fill="#FFFFFF" d="M40.205,46.112c0,0,8.362-0.621,8.362-10.428s-6.842-14.593-15.508-14.593H17.106h-0.469H4.541v54.806
			h12.097h0.469H33.06c0,0,17.409,0.549,17.409-16.176C50.468,59.721,51.229,46.112,40.205,46.112z M17.106,30.832h13.899h2.053
			c0,0,3.876,0,3.876,5.702c0,5.702-2.28,6.529-4.865,6.529H17.106V30.832z M32.323,66.156H17.106V51.511h15.953
			c0,0,5.777-0.077,5.777,7.525C38.836,65.375,34.61,66.093,32.323,66.156z"/>
		<g>
			<path fill="#FFFFFF" d="M73.688,35.035c-21.074,0-21.058,21.056-21.058,21.056s-1.446,20.951,21.058,20.951
				c0,0,18.754,1.069,18.754-14.575h-9.646c0,0,0.322,5.895-8.786,5.895c0,0-9.646,0.646-9.646-9.536H92.76
				C92.762,58.824,95.869,35.035,73.688,35.035z M82.26,51.511H64.257c0,0,1.179-8.449,9.646-8.449
				C82.368,43.062,82.26,51.511,82.26,51.511z"/>
			<rect x="61.896" y="24.319" fill="#FFFFFF" width="22.61" height="6.751"/>
		</g>
	</g>
</g>
<g>
	<g>
		<path fill="#1D1D1B" d="M40.358,64.981c0,0,9.462-0.702,9.462-11.8c0-11.098-7.742-16.514-17.549-16.514H14.22h-0.531H0v62.017
			h13.689h0.531h18.053c0,0,19.701,0.624,19.701-18.306C51.973,80.381,52.833,64.981,40.358,64.981z M14.22,47.69h15.729h2.324
			c0,0,4.387,0,4.387,6.452s-2.58,7.387-5.506,7.387H14.22V47.69z M31.438,87.664H14.22V71.091h18.053c0,0,6.537-0.087,6.537,8.517
			C38.81,86.78,34.027,87.592,31.438,87.664z"/>
		<g>
			<path fill="#1D1D1B" d="M78.248,52.446c-23.849,0-23.827,23.827-23.827,23.827s-1.638,23.709,23.827,23.709
				c0,0,21.223,1.212,21.223-16.492H88.555c0,0,0.365,6.668-9.943,6.668c0,0-10.914,0.731-10.914-10.79h32.135
				C99.832,79.368,103.349,52.446,78.248,52.446z M87.948,71.091H67.575c0,0,1.334-9.56,10.914-9.56
				C88.07,61.531,87.948,71.091,87.948,71.091z"/>
			<rect x="64.905" y="40.321" fill="#1D1D1B" width="25.587" height="7.639"/>
		</g>
	</g>
</g>
</svg>
