<?xml version="1.0" encoding="utf-8"?>
<!-- Generator: Adobe Illustrator 16.0.0, SVG Export Plug-In . SVG Version: 6.00 Build 0)  -->
<!DOCTYPE svg PUBLIC "-//W3C//DTD SVG 1.1//EN" "http://www.w3.org/Graphics/SVG/1.1/DTD/svg11.dtd">
<svg version="1.1" id="Layer_1" xmlns="http://www.w3.org/2000/svg" xmlns:xlink="http://www.w3.org/1999/xlink" x="0px" y="0px"
	 width="100px" height="100px" viewBox="0 0 100 100" enable-background="new 0 0 100 100" xml:space="preserve">
<path fill="#f4594e" id="LinkedIn_3_" d="M100,60.808v36.971H78.568V63.283c0-8.665-3.102-14.579-10.859-14.579c-5.923,0-9.447,3.986-10.999,7.841
	C56.146,57.923,56,59.842,56,61.771v36.008H34.562c0,0,0.289-58.423,0-64.476H56v9.139c-0.043,0.068-0.1,0.142-0.141,0.208H56
	v-0.208c2.848-4.386,7.935-10.653,19.318-10.653C89.427,31.788,100,41.004,100,60.808z M12.133,2.222C4.798,2.222,0,7.033,0,13.359
	c0,6.189,4.659,11.146,11.849,11.146h0.143c7.476,0,12.126-4.956,12.126-11.146C23.978,7.033,19.468,2.222,12.133,2.222z
	 M1.274,97.778h21.432V33.303H1.274V97.778z"/>
</svg>
