<?xml version="1.0" encoding="utf-8"?>
<!-- Generator: Adobe Illustrator 16.0.0, SVG Export Plug-In . SVG Version: 6.00 Build 0)  -->
<!DOCTYPE svg PUBLIC "-//W3C//DTD SVG 1.1//EN" "http://www.w3.org/Graphics/SVG/1.1/DTD/svg11.dtd">
<svg version="1.1" id="Layer_1" xmlns="http://www.w3.org/2000/svg" xmlns:xlink="http://www.w3.org/1999/xlink" x="0px" y="0px"
	 width="100px" height="100px" viewBox="0 0 100 100" enable-background="new 0 0 100 100" xml:space="preserve">
<g>
	<g>
		<path fill="#1D1D1B" d="M47.9,4.733c0.824,0.512,1.753,1.262,2.785,2.242c0.987,1.025,1.96,2.288,2.904,3.781
			c0.909,1.408,1.714,3.074,2.416,4.996c0.577,1.921,0.865,4.165,0.865,6.729c-0.078,4.699-1.116,8.457-3.11,11.274
			c-0.979,1.369-2.016,2.629-3.114,3.78c-1.213,1.152-2.503,2.328-3.874,3.523c-0.783,0.812-1.507,1.731-2.17,2.756
			c-0.784,1.069-1.176,2.307-1.176,3.718c0,1.369,0.402,2.498,1.206,3.395c0.683,0.854,1.345,1.602,1.987,2.241l4.456,3.65
			c2.769,2.265,5.196,4.761,7.285,7.495c1.966,2.777,2.991,6.408,3.069,10.893c0,6.363-2.811,12.002-8.43,16.914
			c-5.827,5.081-14.238,7.709-25.229,7.88c-9.198-0.084-16.067-2.049-20.605-5.884c-4.578-3.582-6.869-7.866-6.869-12.852
			c0-2.434,0.744-5.142,2.232-8.125c1.447-2.983,4.063-5.605,7.851-7.866c4.254-2.43,8.724-4.049,13.406-4.859
			c4.637-0.682,8.488-1.064,11.551-1.15c-0.947-1.242-1.791-2.577-2.533-3.992c-0.865-1.374-1.298-3.03-1.298-4.962
			c0-1.157,0.167-2.127,0.494-2.896c0.29-0.815,0.555-1.567,0.802-2.257c-1.492,0.173-2.897,0.259-4.221,0.259
			c-6.991-0.086-12.321-2.285-15.986-6.6c-3.837-4.014-5.755-8.688-5.755-14.026c0-6.451,2.72-12.3,8.156-17.553
			c3.731-3.076,7.613-5.082,11.639-6.021C30.618,0.406,34.354,0,37.842,0h26.266l-8.113,4.733H47.9L47.9,4.733z M52.972,80.342
			c0-3.332-1.087-6.236-3.261-8.714c-2.301-2.351-5.896-5.234-10.79-8.651c-0.835-0.086-1.816-0.129-2.946-0.129
			c-0.669-0.083-2.388,0-5.147,0.259c-2.719,0.383-5.498,1.001-8.342,1.856c-0.669,0.257-1.61,0.64-2.822,1.154
			c-1.214,0.556-2.447,1.347-3.701,2.371c-1.214,1.067-2.236,2.395-3.073,3.974c-0.962,1.667-1.443,3.675-1.443,6.023
			c0,4.612,2.091,8.416,6.272,11.407c3.976,2.991,9.412,4.529,16.312,4.616c6.188-0.087,10.914-1.454,14.177-4.103
			C51.386,87.796,52.972,84.444,52.972,80.342z M34.66,41.84c3.459-0.128,6.339-1.371,8.644-3.726
			c1.114-1.668,1.827-3.378,2.143-5.134c0.191-1.754,0.287-3.229,0.287-4.428c0-5.179-1.322-10.403-3.973-15.666
			c-1.242-2.527-2.879-4.579-4.902-6.163c-2.071-1.497-4.451-2.291-7.142-2.377c-3.56,0.086-6.52,1.521-8.88,4.302
			c-1.989,2.911-2.942,6.165-2.855,9.757c0,4.751,1.389,9.695,4.168,14.831c1.347,2.397,3.083,4.432,5.213,6.099
			C29.493,41.004,31.925,41.84,34.66,41.84z"/>
	</g>
	<polygon id="PLUS" fill="#1D1D1B" points="99.702,14.341 85.918,14.341 85.918,0.559 79.241,0.559 79.241,14.341 65.458,14.341 
		65.458,21.018 79.241,21.018 79.241,34.802 85.918,34.802 85.918,21.018 99.702,21.018 	"/>
</g>
</svg>
