<?xml version="1.0" encoding="utf-8"?>
<!-- Generator: Adobe Illustrator 16.0.0, SVG Export Plug-In . SVG Version: 6.00 Build 0)  -->
<!DOCTYPE svg PUBLIC "-//W3C//DTD SVG 1.1//EN" "http://www.w3.org/Graphics/SVG/1.1/DTD/svg11.dtd">
<svg version="1.1" id="Layer_1" xmlns="http://www.w3.org/2000/svg" xmlns:xlink="http://www.w3.org/1999/xlink" x="0px" y="0px"
	 width="100px" height="100px" viewBox="0 0 100 100" enable-background="new 0 0 100 100" xml:space="preserve">
<path fill="#1D1D1B" d="M52.342,0c-27.29,0-41.05,19.565-41.05,35.882c0,9.877,3.739,18.669,11.763,21.944
	c1.314,0.538,2.493,0.02,2.875-1.438c0.265-1.008,0.892-3.552,1.174-4.611c0.385-1.437,0.234-1.943-0.826-3.198
	c-2.313-2.729-3.792-6.264-3.792-11.265c0-14.517,10.86-27.511,28.281-27.511c15.425,0,23.9,9.425,23.9,22.014
	c0,16.56-7.33,30.537-18.212,30.537c-6.01,0-10.508-4.967-9.065-11.062c1.727-7.278,5.07-15.13,5.07-20.384
	c0-4.702-2.522-8.621-7.746-8.621c-6.143,0-11.075,6.354-11.075,14.868c0,5.42,1.831,9.089,1.831,9.089s-6.285,26.634-7.388,31.299
	c-2.195,9.291-0.329,20.677-0.175,21.829c0.094,0.68,0.97,0.842,1.364,0.325c0.568-0.739,7.884-9.771,10.371-18.795
	c0.703-2.557,4.04-15.789,4.04-15.789c1.996,3.808,7.825,7.159,14.031,7.159c18.465,0,30.994-16.835,30.994-39.364
	C88.706,15.867,74.27,0,52.342,0z"/>
</svg>
