<?xml version="1.0" encoding="utf-8"?>
<!-- Generator: Adobe Illustrator 16.0.0, SVG Export Plug-In . SVG Version: 6.00 Build 0)  -->
<!DOCTYPE svg PUBLIC "-//W3C//DTD SVG 1.1//EN" "http://www.w3.org/Graphics/SVG/1.1/DTD/svg11.dtd">
<svg version="1.1" id="Layer_1" xmlns="http://www.w3.org/2000/svg" xmlns:xlink="http://www.w3.org/1999/xlink" x="0px" y="0px"
	 width="100px" height="100px" viewBox="0 0 100 100" enable-background="new 0 0 100 100" xml:space="preserve">
<g>
	<path fill="#f4594e" d="M100,19.71c-3.679,1.594-7.633,2.671-11.782,3.155c4.235-2.479,7.488-6.407,9.021-11.086
		c-3.964,2.296-8.354,3.964-13.027,4.863c-3.742-3.894-9.075-6.328-14.976-6.328c-11.331,0-20.516,8.972-20.516,20.037
		c0,1.571,0.181,3.1,0.53,4.566c-17.051-0.835-32.168-8.813-42.288-20.936c-1.767,2.958-2.777,6.4-2.777,10.073
		c0,6.952,3.623,13.086,9.126,16.679c-3.363-0.104-6.527-1.006-9.293-2.507c0,0.084,0,0.167,0,0.253
		c0,9.708,7.072,17.806,16.457,19.647c-1.72,0.457-3.533,0.703-5.406,0.703c-1.321,0-2.607-0.127-3.858-0.359
		c2.611,7.959,10.187,13.754,19.165,13.912c-7.021,5.377-15.869,8.578-25.481,8.578c-1.655,0-3.287-0.094-4.894-0.279
		c9.081,5.688,19.863,9.004,31.449,9.004c37.739,0,58.374-30.533,58.374-57.012c0-0.868-0.02-1.732-0.059-2.592
		C93.772,27.257,97.25,23.727,100,19.71z"/>
</g>
</svg>
